<?xml version="1.0" encoding="UTF-8" standalone="no"?>
<svg
   width="5000"
   height="5000"
   viewBox="0 0 5000 4999.9999"
   id="svg2"
   version="1.1"
   inkscape:version="1.1.1 (c3084ef, 2021-09-22)"
   sodipodi:docname="circle-mariadb.svg"
   inkscape:export-filename="/home/felicianotech/Projects/cloud-unpacked/graphics/logos/master/master.png"
   inkscape:export-xdpi="11.9"
   inkscape:export-ydpi="11.9"
   xmlns:inkscape="http://www.inkscape.org/namespaces/inkscape"
   xmlns:sodipodi="http://sodipodi.sourceforge.net/DTD/sodipodi-0.dtd"
   xmlns="http://www.w3.org/2000/svg"
   xmlns:svg="http://www.w3.org/2000/svg"
   xmlns:rdf="http://www.w3.org/1999/02/22-rdf-syntax-ns#"
   xmlns:cc="http://creativecommons.org/ns#"
   xmlns:dc="http://purl.org/dc/elements/1.1/">
  <defs
     id="defs4">
    <style
       id="style270">.cls-1{fill:#fff;}</style>
  </defs>
  <sodipodi:namedview
     id="base"
     pagecolor="#000000"
     bordercolor="#666666"
     borderopacity="1.0"
     inkscape:pageopacity="0"
     inkscape:pageshadow="2"
     inkscape:zoom="0.047768632"
     inkscape:cx="-2815.6553"
     inkscape:cy="3851.9001"
     inkscape:document-units="px"
     inkscape:current-layer="layer1"
     showgrid="false"
     inkscape:window-width="1680"
     inkscape:window-height="912"
     inkscape:window-x="0"
     inkscape:window-y="25"
     inkscape:window-maximized="1"
     fit-margin-top="0"
     fit-margin-left="0"
     fit-margin-right="0"
     fit-margin-bottom="0"
     showborder="true"
     units="px"
     inkscape:pagecheckerboard="true"
     inkscape:document-rotation="0" />
  <metadata
     id="metadata7">
    <rdf:RDF>
      <cc:Work
         rdf:about="">
        <dc:format>image/svg+xml</dc:format>
        <dc:type
           rdf:resource="http://purl.org/dc/dcmitype/StillImage" />
      </cc:Work>
    </rdf:RDF>
  </metadata>
  <g
     inkscape:label="Layer 1"
     inkscape:groupmode="layer"
     id="layer1"
     transform="translate(2386.9101,-3798.7827)">
    <circle
       style="fill:#133443;fill-opacity:1"
       id="path864"
       cx="113.0899"
       cy="6298.7827"
       r="2500" />
    <circle
       style="fill:#000000;fill-opacity:1;stroke:none;stroke-width:2;stroke-linecap:square;stroke-linejoin:miter;stroke-miterlimit:4;stroke-dasharray:none;stroke-opacity:1"
       id="path4304-4-6"
       cx="2523.1167"
       cy="-317.93839"
       r="0" />
    <circle
       style="fill:#000000;fill-opacity:1;stroke:none;stroke-width:2;stroke-linecap:square;stroke-linejoin:miter;stroke-miterlimit:4;stroke-dasharray:none;stroke-opacity:1"
       id="path4304-4-2"
       cx="320.25952"
       cy="862.34735"
       r="0" />
    <circle
       style="fill:#000000;fill-opacity:1;stroke:none;stroke-width:2;stroke-linecap:square;stroke-linejoin:miter;stroke-miterlimit:4;stroke-dasharray:none;stroke-opacity:1"
       id="path4304-4-0"
       cx="2523.1167"
       cy="862.34735"
       r="0" />
    <circle
       style="fill:#000000;fill-opacity:1;stroke:none;stroke-width:2;stroke-linecap:square;stroke-linejoin:miter;stroke-miterlimit:4;stroke-dasharray:none;stroke-opacity:1"
       id="path4304-4-0-6"
       cx="1385.9738"
       cy="2456.3474"
       r="0" />
    <circle
       style="fill:#000000;fill-opacity:1;stroke:none;stroke-width:2;stroke-linecap:square;stroke-linejoin:miter;stroke-miterlimit:4;stroke-dasharray:none;stroke-opacity:1"
       id="path4304-4-9-6"
       cx="2458.947"
       cy="2162.2476"
       r="0" />
    <circle
       style="fill:#000000;fill-opacity:1;stroke:none;stroke-width:2;stroke-linecap:square;stroke-linejoin:miter;stroke-miterlimit:4;stroke-dasharray:none;stroke-opacity:1"
       id="path4304-4-9-0"
       cx="2475.4346"
       cy="-339.29968"
       r="0" />
    <g
       id="g304"
       transform="matrix(10.769889,0,0,10.769889,-1555.5119,4937.7978)">
      <path
         class="cls-1"
         d="M 63.62,217.6 74.9,261.16 H 66.39 L 58.85,229.79 44.73,261.16 H 37.55 L 23.5,230 15.78,261.19 H 7.45 L 18.61,217.6 H 26 l 15.21,33.73 15.11,-33.73 z"
         transform="translate(-7.45,-9.1)"
         id="path276" />
      <path
         class="cls-1"
         d="m 107,234.44 v -5.07 h 8.2 v 31.79 H 107 V 256 c -2.18,3.69 -6.64,5.8 -12.07,5.8 -11.34,0 -17.68,-8 -17.68,-17.2 0,-8.87 6,-16 16.47,-16 5.96,0.05 10.91,2.1 13.28,5.84 z m -21,10.62 c 0,5.85 3.68,10.85 10.8,10.85 6.88,0 10.62,-4.88 10.62,-10.67 0,-5.79 -3.86,-10.74 -11,-10.74 -6.87,0 -10.42,4.94 -10.42,10.56 z"
         transform="translate(-7.45,-9.1)"
         id="path278" />
      <path
         class="cls-1"
         d="m 133.7,261.16 h -8.2 v -31.79 h 8.2 v 7.12 a 12.6,12.6 0 0 1 11.47,-7.84 14.75,14.75 0 0 1 5.12,0.84 l -1.75,6 a 17.94,17.94 0 0 0 -4.34,-0.6 c -5.91,0 -10.5,4.46 -10.5,11 z"
         transform="translate(-7.45,-9.1)"
         id="path280" />
      <path
         class="cls-1"
         d="m 154.39,221 a 4.18,4.18 0 0 1 4.41,-4.28 4.32,4.32 0 0 1 4.46,4.4 4.15,4.15 0 0 1 -4.46,4.23 4.23,4.23 0 0 1 -4.41,-4.35 z m 0.36,8.39 H 163 v 23.21 c 0,1.44 0.3,2.47 1.51,2.47 a 9,9 0 0 0 1.57,-0.18 l 1.26,6 a 14.56,14.56 0 0 1 -5.43,1 c -3.44,0 -7.12,-1 -7.12,-8.81 z"
         transform="translate(-7.45,-9.1)"
         id="path282" />
      <path
         class="cls-1"
         d="m 199.64,234.44 v -5.07 h 8.2 v 31.79 h -8.2 V 256 c -2.18,3.69 -6.64,5.8 -12.07,5.8 -11.34,0 -17.68,-8 -17.68,-17.2 0,-8.87 6,-16 16.47,-16 5.98,0.05 10.92,2.1 13.28,5.84 z m -21,10.62 c 0,5.85 3.68,10.85 10.8,10.85 6.88,0 10.62,-4.88 10.62,-10.67 0,-5.79 -3.86,-10.74 -11,-10.74 -6.86,0 -10.42,4.94 -10.42,10.56 z"
         transform="translate(-7.45,-9.1)"
         id="path284" />
      <path
         class="cls-1"
         d="m 220.44,217.6 h 19.67 c 16.53,0 24.8,9.12 24.68,21.78 0.12,13.16 -9,21.78 -23.23,21.78 h -21.12 z m 5.43,3.87 v 35.89 h 15 c 13.15,0 18.16,-8.87 18.16,-18.1 0,-10.43 -6.28,-17.79 -18.16,-17.79 z"
         transform="translate(-7.45,-9.1)"
         id="path286" />
      <path
         class="cls-1"
         d="m 298.32,261.16 h -25 V 217.6 h 22.5 c 8.63,0 16.83,1.63 16.71,11.29 0,6.81 -4.22,8.68 -8.69,9.41 6.34,0.54 10.14,4.58 10.14,11.1 0.09,9.77 -8.48,11.76 -15.66,11.76 z m -1.87,-24.55 c 8.63,0 10.56,-3.32 10.56,-7.54 0,-6.34 -3.86,-7.79 -10.56,-7.79 h -17.91 v 15.33 z m 0.24,3.68 h -18.15 v 17.19 h 18.94 c 5.31,0 10.92,-1.75 10.92,-8.44 0,-7.73 -6.46,-8.75 -11.71,-8.75 z"
         transform="translate(-7.45,-9.1)"
         id="path288" />
      <path
         class="cls-1"
         d="m 316,10.05 a 4.2,4.2 0 0 0 -2.84,-1 c -2.84,0 -6.5,1.92 -8.46,3 l -0.79,0.4 a 26.81,26.81 0 0 1 -10.57,2.66 c -3.76,0.12 -7,0.34 -11.22,0.77 -25,2.58 -36.15,21.74 -46.89,40.27 -5.84,10.08 -11.88,20.5 -20.16,28.57 a 55.71,55.71 0 0 1 -5.46,4.63 c -8.57,6.39 -19.33,10.9 -27.74,14.12 -8.07,3.08 -16.86,5.85 -25.37,8.53 -7.78,2.45 -15.14,4.76 -21.9,7.28 -3.05,1.13 -5.64,2 -7.93,2.76 -6.15,2 -10.6,3.53 -17.08,8 -2.53,1.73 -5.07,3.6 -6.8,5 A 71.26,71.26 0 0 0 89.25,149.31 84.81,84.81 0 0 1 77.88,163 c -1.36,1.34 -3.8,2 -7.43,2 -4.27,0 -9.43,-0.88 -14.91,-1.81 -5.48,-0.93 -11.46,-2 -16.46,-2 -4.07,0 -7.17,0.66 -9.5,2 0,0 -3.9,2.28 -5.56,5.23 l 1.62,0.73 a 33.56,33.56 0 0 1 6.93,5 33.68,33.68 0 0 0 7.19,5.12 6.37,6.37 0 0 1 2.24,1.45 c -0.69,1 -1.69,2.29 -2.74,3.67 -5.77,7.55 -9.13,12.32 -7.2,14.92 a 6,6 0 0 0 3,0.68 c 12.59,0 19.34,-3.27 27.9,-7.41 2.47,-1.2 5,-2.44 8,-3.7 5,-2.17 10.38,-5.63 16.08,-9.29 7.55,-4.85 15.36,-9.87 22.92,-12.3 a 62.3,62.3 0 0 1 19.23,-2.7 c 8,0 16.42,1.07 24.54,2.11 6.06,0.78 12.32,1.58 18.47,2 2.39,0.14 4.6,0.21 6.76,0.21 a 78.48,78.48 0 0 0 8.61,-0.45 l 0.68,-0.24 c 4.32,-2.65 6.34,-8.34 8.29,-13.84 1.26,-3.54 2.32,-6.72 4,-8.74 a 2.06,2.06 0 0 1 0.33,-0.27 0.4,0.4 0 0 1 0.49,0.08 0.25,0.25 0 0 1 0,0.16 c -1,21.51 -9.67,35.16 -18.42,47.3 l -5.94,6.23 c 0,0 8.18,0 12.84,-1.8 17,-5.08 29.84,-16.28 39.18,-34.14 a 144.39,144.39 0 0 0 6.16,-14.09 c 0.16,-0.4 1.64,-1.14 1.49,0.93 0,0.61 -0.08,1.29 -0.13,2 v 0 c 0,0.42 -0.06,0.85 -0.08,1.28 -0.25,3 -1,9.34 -1,9.34 l 5.25,-2.81 c 12.66,-8 22.42,-24.14 29.82,-49.25 3.09,-10.46 5.34,-20.85 7.33,-30 2.38,-11 4.43,-20.43 6.78,-24.09 3.69,-5.74 9.32,-9.62 14.77,-13.39 0.75,-0.51 1.49,-1 2.22,-1.54 6.86,-4.81 13.67,-10.36 15.16,-20.71 V 20.64 C 317.93,12.92 317,11 316,10.05 Z"
         transform="translate(-7.45,-9.1)"
         id="path290" />
    </g>
  </g>
  <style
     id="style1118"
     type="text/css">
	.st0{fill:#2DBCAF;}
	.st1{fill:#5DC9E1;}
	.st2{fill:#FDDD00;}
	.st3{fill:#CE3262;}
	.st4{fill:#00ACD7;}
	.st5{fill:#FFFFFF;}
</style>
</svg>
